<?xml version="1.0" encoding="UTF-8"?>
<svg width="512px" height="512px" viewBox="0 0 512 512" xmlns="http://www.w3.org/2000/svg" xmlns:xlink="http://www.w3.org/1999/xlink" version="1.1">
 <!-- Generated by Pixelmator Pro 2.0.3 -->
 <g id="group">
  <path id="Path" d="M512 256 C512 364.057 445.052 456.477 350.372 494.044 321.169 505.631 289.329 443.343 256 443.343 131.258 443.343 72.644 377.49 4.621 304.672 1.588 288.914 -0 272.643 -0 256 -0 114.615 114.615 0 256 0 397.385 0 512 114.615 512 256 Z" fill="#004d81" fill-opacity="1" stroke="none"/>
  <g id="group-1">
   <g id="group-2">
    <path id="Path-1" d="M349.328 352.629 C349.328 387.157 321.338 415.147 286.81 415.147 252.282 415.147 224.292 387.157 224.292 352.629 224.292 318.101 252.282 290.111 286.81 290.111 321.338 290.111 349.328 318.101 349.328 352.629 Z" fill="#ac80dd" fill-opacity="1" stroke="none"/>
    <path id="Path-2" d="M362.74 452.5 C362.74 467.83 358.19 482.1 350.37 494.04 329.151 502.462 306.537 508.128 282.971 510.596 274.108 511.524 265.11 498.177 256 498.177 250.27 498.177 244.59 497.987 238.96 497.617 221.83 483.707 210.88 476.29 210.88 452.5 210.88 410.57 244.88 376.57 286.81 376.57 328.74 376.57 362.74 410.57 362.74 452.5 Z" fill="#ac80dd" fill-opacity="1" stroke="none"/>
    <path id="Path-3" d="M237.389 50.243 C216.452 50.243 199.479 67.216 199.479 88.153 L199.479 134.044 275.298 134.044 275.298 88.153 C275.299 67.216 258.326 50.243 237.389 50.243 Z" fill="#ac80dd" fill-opacity="1" stroke="none"/>
   </g>
   <path id="Path-4" d="M248.7 51.953 C233.28 56.773 222.09 71.163 222.09 88.153 L222.09 134.043 199.48 134.043 199.48 88.153 C199.48 67.223 216.45 50.243 237.39 50.243 241.33 50.243 245.12 50.843 248.7 51.953 Z" fill="#9d66d5" fill-opacity="1" stroke="none"/>
   <g id="group-3">
    <path id="Path-5" d="M310.314 165.988 L301.96 6.866 C301.561 -0.729 291.218 -2.649 288.121 4.298 L223.226 149.826 Z" fill="#b1e4f9" fill-opacity="1" stroke="none"/>
    <g id="group-4">
     <path id="Path-6" d="M296.05 0.128 C295.238 -0.023 294.088 1.645 293.181 5.238 L255.138 155.749 223.226 149.826 288.114 4.297 C289.665 0.824 293.033 -0.432 296.05 0.128 Z" fill="#90d8f9" fill-opacity="1" stroke="none"/>
     <path id="Path-7" d="M230.655 138.815 C226.69 138.079 223.428 134.933 222.742 130.724 221.869 125.363 225.507 120.309 230.868 119.435 L306.154 107.166 C311.517 106.292 316.569 109.931 317.443 115.292 318.317 120.653 314.678 125.707 309.317 126.581 L234.031 138.85 C232.879 139.037 231.741 139.016 230.655 138.815 Z" fill="#90d8f9" fill-opacity="1" stroke="none"/>
     <path id="Path-8" d="M252.849 89.065 C248.885 88.329 245.623 85.183 244.937 80.975 244.063 75.614 247.7 70.559 253.061 69.685 L303.745 61.419 C309.105 60.545 314.16 64.182 315.035 69.543 315.909 74.904 312.272 79.959 306.911 80.833 L256.227 89.099 C255.074 89.287 253.935 89.266 252.849 89.065 Z" fill="#90d8f9" fill-opacity="1" stroke="none"/>
     <path id="Path-9" d="M275.034 39.312 C271.069 38.576 267.807 35.429 267.121 31.22 266.248 25.859 269.886 20.805 275.247 19.932 L301.351 15.68 C306.711 14.805 311.766 18.445 312.639 23.806 313.512 29.167 309.874 34.221 304.513 35.094 L278.409 39.346 C277.257 39.534 276.119 39.513 275.034 39.312 Z" fill="#90d8f9" fill-opacity="1" stroke="none"/>
    </g>
   </g>
   <path id="Path-10" d="M167.134 57.892 C196.44 57.892 220.198 81.65 220.198 110.956 220.198 140.262 196.44 164.02 167.134 164.02 Z" fill="#ffceec" fill-opacity="1" stroke="none"/>
   <path id="Path-11" d="M266.48 184.59 L215.45 184.59 C215.59 186.47 215.69 188.37 215.69 190.28 215.69 227.73 187.54 258.58 151.25 262.87 152.29 267.78 152.84 272.86 152.84 278.08 152.84 310.56 131.64 338.09 102.33 347.61 108.46 359.37 111.94 372.73 111.94 386.9 111.94 410.73 129.592 405.148 113.822 420.598 105.182 412.958 97.944 414.898 90.414 406.168 85.284 400.218 52.1 411 47.52 404.59 26.59 375.28 11.69 341.37 4.63 304.67 6.73 304.09 8.87 303.6 11.04 303.2 8.17 295.37 6.61 286.9 6.61 278.08 6.61 240.63 34.76 209.78 71.05 205.49 70.01 200.58 69.46 195.5 69.46 190.28 69.46 149.9 102.19 117.17 142.57 117.17 L234.65 117.17 C252.23 117.17 266.48 131.42 266.48 148.99 Z" fill="#ac80dd" fill-opacity="1" stroke="none"/>
   <path id="Path-12" d="M120.33 190.28 C120.33 195.5 120.89 200.58 121.93 205.49 85.64 209.78 57.48 240.63 57.48 278.08 57.48 286.9 59.05 295.37 61.92 303.2 41.84 306.95 24.24 317.74 11.78 332.92 8.87 323.72 6.48 314.29 4.63 304.67 6.73 304.09 8.87 303.6 11.04 303.2 8.17 295.37 6.61 286.9 6.61 278.08 6.61 240.63 34.76 209.78 71.05 205.49 70.01 200.58 69.46 195.5 69.46 190.28 69.46 149.9 102.19 117.17 142.57 117.17 L193.45 117.17 C153.07 117.17 120.33 149.9 120.33 190.28 Z" fill="#9d66d5" fill-opacity="1" stroke="none"/>
   <path id="Path-13" d="M445.96 153.61 L176.04 153.61 176.04 254.07 C176.04 305.28 217.56 346.8 268.77 346.8 288.32 346.8 306.46 340.75 321.41 330.42 336.36 320.09 348.13 305.49 354.95 288.37 L421.608 288.37 C425.555 299.857 436.442 308.12 449.27 308.12 457.34 308.12 464.66 304.85 469.95 299.55 475.24 294.25 478.52 286.94 478.52 278.86 L478.52 186.17 C478.52 168.19 463.94 153.61 445.96 153.61 Z" fill="#ffddf1" fill-opacity="1" stroke="none"/>
   <path id="Path-14" d="M282.97 304.03 L282.97 510.59 C274.11 511.52 265.11 512 256 512 178.49 512 109.03 477.55 62.09 423.13 L176.05 153.61 Z" fill="#ffddf1" fill-opacity="1" stroke="none"/>
   <path id="Path-15" d="M197.67 294.87 L112.83 468.25 C93.98 455.5 76.91 440.31 62.09 423.13 56.96 417.18 52.1 411 47.52 404.59 L176.05 153.61 194.53 179.61 Z" fill="#ffceec" fill-opacity="1" stroke="none"/>
   <path id="Path-16" d="M64.468 153.606 C64.468 187.293 91.777 214.602 125.464 214.602 159.151 214.602 186.46 187.293 186.46 153.606 Z" fill="#ffceec" fill-opacity="1" stroke="none"/>
   <path id="Path-17" d="M430.578 203.283 C424.481 203.283 419.539 198.341 419.539 192.244 419.539 186.147 424.481 181.205 430.578 181.205 436.675 181.205 441.617 186.147 441.617 192.244 441.617 198.341 436.675 203.283 430.578 203.283 Z" fill="#eaaadd" fill-opacity="1" stroke="none"/>
   <path id="Path-18" d="M462.52 203.283 C456.423 203.283 451.481 198.341 451.481 192.244 451.481 186.147 456.423 181.205 462.52 181.205 468.617 181.205 473.559 186.147 473.559 192.244 473.559 198.341 468.616 203.283 462.52 203.283 Z" fill="#eaaadd" fill-opacity="1" stroke="none"/>
   <path id="Path-19" d="M281.882 345.876 C277.602 346.486 273.222 346.796 268.772 346.796 217.562 346.796 176.042 305.276 176.042 254.066 L176.042 153.606 202.202 153.606 202.202 254.066 C202.202 300.846 236.852 339.536 281.882 345.876 Z" fill="#ffceec" fill-opacity="1" stroke="none"/>
   <path id="Path-20" d="M291.904 150.773 C291.904 174.711 272.498 194.117 248.56 194.117 224.622 194.117 205.216 174.711 205.216 150.773 205.216 126.835 224.622 107.429 248.56 107.429 272.498 107.429 291.904 126.835 291.904 150.773 Z" fill="#f9f6f9" fill-opacity="1" stroke="none"/>
   <path id="Path-21" d="M253.395 150.773 C253.395 162.369 243.994 171.77 232.398 171.77 220.802 171.77 211.401 162.369 211.401 150.773 211.401 139.177 220.802 129.776 232.398 129.776 243.994 129.776 253.395 139.177 253.395 150.773 Z" fill="#453d81" fill-opacity="1" stroke="none"/>
   <path id="Path-22" d="M452.87 267.37 C422.34 271.59 391.37 271.59 360.84 267.37 348.78 265.7 340.65 254.15 343.12 242.22 343.15 242.08 343.18 241.94 343.2 241.8 343.36 241.02 343.57 240.26 343.81 239.52 346.94 229.95 358.748 229.107 368.948 230.517 395.568 234.187 417.825 233.522 444.435 229.852 447.155 229.472 452.37 225.001 454.89 225.63 462.57 227.5 468.82 233.63 470.51 241.8 470.54 241.94 470.57 242.08 470.6 242.22 473.07 254.15 464.94 265.7 452.87 267.37 Z" fill="#453d81" fill-opacity="1" stroke="none"/>
   <path id="Path-23" d="M393.741 262.318 L381.912 262.318 C377.915 262.318 374.675 265.558 374.675 269.555 L374.675 290.147 C374.675 295.224 378.506 299.658 383.573 299.986 389.125 300.346 393.741 295.949 393.741 290.474 L393.741 306.092 C393.741 311.169 397.572 315.603 402.639 315.931 408.191 316.291 412.807 311.894 412.807 306.419 L412.807 269.556 C412.807 265.559 409.567 262.319 405.57 262.319 L393.741 262.319 Z" fill="#f9f6f9" fill-opacity="1" stroke="none"/>
   <path id="Path-24" d="M454.89 225.63 C452.45 232.97 446.05 238.74 437.8 239.88 407.27 244.1 376.3 244.1 345.77 239.88 345.1 239.79 344.45 239.67 343.81 239.52 346.94 229.95 356.54 223.81 366.74 225.22 393.36 228.89 420.36 228.89 446.97 225.22 449.69 224.84 452.37 225 454.89 225.63 Z" fill="#f9f6f9" fill-opacity="1" stroke="none"/>
   <g id="group-5">
    <path id="Path-25" d="M362.598 378.798 C351.596 378.798 342.677 369.879 342.677 358.877 L342.677 245.924 358.888 245.924 C371.939 245.924 382.518 256.504 382.518 269.554 L382.518 358.877 C382.518 369.879 373.599 378.798 362.598 378.798 Z" fill="#da387d" fill-opacity="1" stroke="none"/>
    <path id="Path-26" d="M368.587 377.877 C366.684 378.481 364.66 378.802 362.554 378.797 351.491 378.774 342.677 369.467 342.677 358.404 L342.677 245.921 C349.288 245.921 354.647 251.28 354.647 257.891 L354.647 358.877 C354.647 367.798 360.507 375.338 368.587 377.877 Z" fill="#c3247d" fill-opacity="1" stroke="none"/>
   </g>
   <path id="Path-27" d="M362.391 146.783 C362.391 168.518 344.772 186.137 323.037 186.137 301.302 186.137 283.683 168.518 283.683 146.783 283.683 125.048 301.302 107.429 323.037 107.429 344.772 107.429 362.391 125.048 362.391 146.783 Z" fill="#f9f6f9" fill-opacity="1" stroke="none"/>
   <path id="Path-28" d="M356.715 141.552 C356.715 151.335 348.784 159.266 339.001 159.266 329.218 159.266 321.287 151.335 321.287 141.552 321.287 131.769 329.218 123.838 339.001 123.838 348.784 123.838 356.715 131.769 356.715 141.552 Z" fill="#453d81" fill-opacity="1" stroke="none"/>
  </g>
 </g>
</svg>
