<?xml version="1.0" encoding="UTF-8"?>
<svg width="512px" height="512px" viewBox="0 0 512 512" xmlns="http://www.w3.org/2000/svg" xmlns:xlink="http://www.w3.org/1999/xlink" version="1.1">
 <!-- Generated by Pixelmator Pro 2.0.3 -->
 <g id="022-please">
  <path id="Path" d="M512 256 C512 388.276 411.678 497.12 282.971 510.596 274.108 511.524 265.11 396.122 256 396.122 131.258 396.122 65.141 412.749 4.621 304.672 1.588 288.914 -0 272.643 -0 256 -0 114.615 114.615 0 256 0 397.385 0 512 114.615 512 256 Z" fill="#05a89d" fill-opacity="1" stroke="none"/>
  <g id="group">
   <path id="Path-1" d="M362.391 146.783 C362.391 168.518 344.772 186.137 323.037 186.137 301.302 186.137 283.683 168.518 283.683 146.783 283.683 125.048 301.302 107.429 323.037 107.429 344.772 107.429 362.391 125.048 362.391 146.783 Z" fill="#f9f6f9" fill-opacity="1" stroke="none"/>
   <path id="Path-2" d="M340.721 146.783 C340.721 159.461 330.444 169.738 317.766 169.738 305.088 169.738 294.811 159.461 294.811 146.783 294.811 134.105 305.088 123.828 317.766 123.828 330.444 123.828 340.721 134.105 340.721 146.783 Z" fill="#453d81" fill-opacity="1" stroke="none"/>
   <path id="Path-3" d="M343.161 133.817 C343.161 140.145 338.031 145.275 331.703 145.275 325.375 145.275 320.245 140.145 320.245 133.817 320.245 127.489 325.375 122.359 331.703 122.359 338.031 122.359 343.161 127.489 343.161 133.817 Z" fill="#f9f6f9" fill-opacity="1" stroke="none"/>
   <path id="Path-4" d="M237.389 50.243 C216.452 50.243 199.479 67.216 199.479 88.153 L199.479 134.044 275.298 134.044 275.298 88.153 C275.299 67.216 258.326 50.243 237.389 50.243 Z" fill="#ac80dd" fill-opacity="1" stroke="none"/>
   <path id="Path-5" d="M248.7 51.953 C233.28 56.773 222.09 71.163 222.09 88.153 L222.09 134.043 199.48 134.043 199.48 88.153 C199.48 67.223 216.45 50.243 237.39 50.243 241.33 50.243 245.12 50.843 248.7 51.953 Z" fill="#9d66d5" fill-opacity="1" stroke="none"/>
   <g id="group-1">
    <path id="Path-6" d="M310.314 165.988 L301.96 6.866 C301.561 -0.729 291.218 -2.649 288.121 4.298 L223.226 149.826 Z" fill="#b1e4f9" fill-opacity="1" stroke="none"/>
    <g id="group-2">
     <path id="Path-7" d="M296.05 0.128 C295.238 -0.023 294.088 1.645 293.181 5.238 L255.138 155.749 223.226 149.826 288.114 4.297 C289.665 0.824 293.033 -0.432 296.05 0.128 Z" fill="#90d8f9" fill-opacity="1" stroke="none"/>
     <path id="Path-8" d="M230.655 138.815 C226.69 138.079 223.428 134.933 222.742 130.724 221.869 125.363 225.507 120.309 230.868 119.435 L306.154 107.166 C311.517 106.292 316.569 109.931 317.443 115.292 318.317 120.653 314.678 125.707 309.317 126.581 L234.031 138.85 C232.879 139.037 231.741 139.016 230.655 138.815 Z" fill="#90d8f9" fill-opacity="1" stroke="none"/>
     <path id="Path-9" d="M252.849 89.065 C248.885 88.329 245.623 85.183 244.937 80.975 244.063 75.614 247.7 70.559 253.061 69.685 L303.745 61.419 C309.105 60.545 314.16 64.182 315.035 69.543 315.909 74.904 312.272 79.959 306.911 80.833 L256.227 89.099 C255.074 89.287 253.935 89.266 252.849 89.065 Z" fill="#90d8f9" fill-opacity="1" stroke="none"/>
     <path id="Path-10" d="M275.034 39.312 C271.069 38.576 267.807 35.429 267.121 31.22 266.248 25.859 269.886 20.805 275.247 19.932 L301.351 15.68 C306.711 14.805 311.766 18.445 312.639 23.806 313.512 29.167 309.874 34.221 304.513 35.094 L278.409 39.346 C277.257 39.534 276.119 39.513 275.034 39.312 Z" fill="#90d8f9" fill-opacity="1" stroke="none"/>
    </g>
   </g>
   <path id="Path-11" d="M167.134 57.892 C196.44 57.892 220.198 81.65 220.198 110.956 220.198 140.262 196.44 164.02 167.134 164.02 Z" fill="#ffceec" fill-opacity="1" stroke="none"/>
   <path id="Path-12" d="M266.48 184.59 L215.45 184.59 C215.59 186.47 215.69 188.37 215.69 190.28 215.69 227.73 187.54 258.58 151.25 262.87 152.29 267.78 152.84 272.86 152.84 278.08 152.84 310.56 131.64 338.09 102.33 347.61 108.46 359.37 111.94 372.73 111.94 386.9 111.94 410.73 129.592 405.148 113.822 420.598 105.182 412.958 97.944 414.898 90.414 406.168 85.284 400.218 52.1 411 47.52 404.59 26.59 375.28 11.69 341.37 4.63 304.67 6.73 304.09 8.87 303.6 11.04 303.2 8.17 295.37 6.61 286.9 6.61 278.08 6.61 240.63 34.76 209.78 71.05 205.49 70.01 200.58 69.46 195.5 69.46 190.28 69.46 149.9 102.19 117.17 142.57 117.17 L234.65 117.17 C252.23 117.17 266.48 131.42 266.48 148.99 Z" fill="#ac80dd" fill-opacity="1" stroke="none"/>
   <path id="Path-13" d="M120.33 190.28 C120.33 195.5 120.89 200.58 121.93 205.49 85.64 209.78 57.48 240.63 57.48 278.08 57.48 286.9 59.05 295.37 61.92 303.2 41.84 306.95 24.24 317.74 11.78 332.92 8.87 323.72 6.48 314.29 4.63 304.67 6.73 304.09 8.87 303.6 11.04 303.2 8.17 295.37 6.61 286.9 6.61 278.08 6.61 240.63 34.76 209.78 71.05 205.49 70.01 200.58 69.46 195.5 69.46 190.28 69.46 149.9 102.19 117.17 142.57 117.17 L193.45 117.17 C153.07 117.17 120.33 149.9 120.33 190.28 Z" fill="#9d66d5" fill-opacity="1" stroke="none"/>
   <path id="Path-14" d="M497.292 249.098 C497.292 256.718 491.112 262.898 483.492 262.898 L478.522 262.898 478.522 278.858 C478.522 286.938 475.242 294.248 469.952 299.548 464.662 304.848 457.342 308.118 449.272 308.118 433.752 308.118 421.062 296.028 420.082 280.758 L354.952 288.368 C348.132 305.488 336.362 320.088 321.412 330.418 306.462 340.748 288.322 346.798 268.772 346.798 217.562 346.798 176.042 305.278 176.042 254.068 L176.042 153.608 445.962 153.608 C463.942 153.608 478.522 168.188 478.522 186.168 L478.522 235.298 483.492 235.298 C491.112 235.298 497.292 241.478 497.292 249.098 Z" fill="#ffddf1" fill-opacity="1" stroke="none"/>
   <path id="Path-15" d="M291.904 150.773 C291.904 174.711 272.498 194.117 248.56 194.117 224.622 194.117 205.216 174.711 205.216 150.773 205.216 126.835 224.622 107.429 248.56 107.429 272.498 107.429 291.904 126.835 291.904 150.773 Z" fill="#f9f6f9" fill-opacity="1" stroke="none"/>
   <path id="Path-16" d="M282.97 304.03 L282.97 510.59 C274.11 511.52 265.11 512 256 512 178.49 512 109.03 477.55 62.09 423.13 L176.05 153.61 Z" fill="#ffddf1" fill-opacity="1" stroke="none"/>
   <path id="Path-17" d="M197.67 294.87 L112.83 468.25 C93.98 455.5 76.91 440.31 62.09 423.13 56.96 417.18 52.1 411 47.52 404.59 L176.05 153.61 194.53 179.61 Z" fill="#ffceec" fill-opacity="1" stroke="none"/>
   <path id="Path-18" d="M64.468 153.606 C64.468 187.293 91.777 214.602 125.464 214.602 159.151 214.602 186.46 187.293 186.46 153.606 Z" fill="#ffceec" fill-opacity="1" stroke="none"/>
   <path id="Path-19" d="M430.578 203.283 C424.481 203.283 419.539 198.341 419.539 192.244 419.539 186.147 424.481 181.205 430.578 181.205 436.675 181.205 441.617 186.147 441.617 192.244 441.617 198.341 436.675 203.283 430.578 203.283 Z" fill="#fec5f3" fill-opacity="1" stroke="none"/>
   <path id="Path-20" d="M462.52 203.283 C456.423 203.283 451.481 198.341 451.481 192.244 451.481 186.147 456.423 181.205 462.52 181.205 468.617 181.205 473.559 186.147 473.559 192.244 473.559 198.341 468.616 203.283 462.52 203.283 Z" fill="#fec5f3" fill-opacity="1" stroke="none"/>
   <path id="Path-21" d="M281.882 345.876 C277.602 346.486 273.222 346.796 268.772 346.796 217.562 346.796 176.042 305.276 176.042 254.066 L176.042 153.606 202.202 153.606 202.202 254.066 C202.202 300.846 236.852 339.536 281.882 345.876 Z" fill="#ffceec" fill-opacity="1" stroke="none"/>
   <path id="Path-22" d="M478.522 262.898 L478.522 278.348 464.855 278.348 C462.725 278.348 460.785 277.488 459.385 276.088 457.985 274.688 457.125 272.748 457.125 270.618 457.125 266.358 460.585 262.898 464.855 262.898 Z" fill="#ff8ec6" fill-opacity="1" stroke="none"/>
   <path id="Path-23" d="M274.967 150.773 C274.967 164.736 263.647 176.056 249.684 176.056 235.721 176.056 224.401 164.736 224.401 150.773 224.401 136.81 235.721 125.49 249.684 125.49 263.647 125.49 274.967 136.81 274.967 150.773 Z" fill="#453d81" fill-opacity="1" stroke="none"/>
   <path id="Path-24" d="M290.867 193.853 C290.867 206.499 271.926 216.75 248.56 216.75 225.194 216.75 206.253 206.499 206.253 193.853 206.253 181.207 225.194 170.956 248.56 170.956 271.926 170.956 290.867 181.207 290.867 193.853 Z" fill="#ffddf1" fill-opacity="1" stroke="none"/>
   <path id="Path-25" d="M262.535 215.622 C262.535 232.886 248.54 246.881 231.276 246.881 214.012 246.881 200.017 232.886 200.017 215.622 200.017 198.358 214.012 184.363 231.276 184.363 248.54 184.363 262.535 198.358 262.535 215.622 Z" fill="#da387d" fill-opacity="1" stroke="none"/>
   <g id="group-3">
    <path id="Path-26" d="M276.838 140.304 C276.838 148.113 270.508 154.443 262.699 154.443 254.89 154.443 248.56 148.113 248.56 140.304 248.56 132.495 254.89 126.165 262.699 126.165 270.508 126.165 276.838 132.495 276.838 140.304 Z" fill="#f9f6f9" fill-opacity="1" stroke="none"/>
    <path id="Path-27" d="M245.242 158.259 C245.242 162.758 241.594 166.406 237.095 166.406 232.596 166.406 228.948 162.758 228.948 158.259 228.948 153.76 232.596 150.112 237.095 150.112 241.594 150.112 245.242 153.76 245.242 158.259 Z" fill="#f9f6f9" fill-opacity="1" stroke="none"/>
   </g>
  </g>
  <path id="JUPÃ" d="M364.95 366 L381.15 366 381.15 436 364.95 436 Z M377.45 345.9 L394.25 345.9 376.15 360.3 363.95 360.3 Z M323.05 396 C329.25 396 334.633 397.033 339.2 399.1 343.767 401.167 347.283 404.1 349.75 407.9 352.217 411.7 353.45 416.2 353.45 421.4 353.45 426.533 352.217 431.017 349.75 434.85 347.283 438.683 343.767 441.617 339.2 443.65 334.633 445.683 329.25 446.7 323.05 446.7 L308.95 446.7 308.95 466 292.75 466 292.75 396 Z M322.15 433.5 C327.017 433.5 330.717 432.45 333.25 430.35 335.783 428.25 337.05 425.267 337.05 421.4 337.05 417.467 335.783 414.45 333.25 412.35 330.717 410.25 327.017 409.2 322.15 409.2 L308.95 409.2 308.95 433.5 Z M245.05 437.2 C235.05 437.2 227.267 434.433 221.7 428.9 216.133 423.367 213.35 415.467 213.35 405.2 L213.35 366 229.55 366 229.55 404.6 C229.55 417.133 234.75 423.4 245.15 423.4 250.217 423.4 254.083 421.883 256.75 418.85 259.417 415.817 260.75 411.067 260.75 404.6 L260.75 366 276.75 366 276.75 405.2 C276.75 415.467 273.967 423.367 268.4 428.9 262.833 434.433 255.05 437.2 245.05 437.2 Z M172.75 467.2 C168.017 467.2 163.667 466.317 159.7 464.55 155.733 462.783 152.483 460.267 149.95 457 L158.95 446.2 C162.75 451.333 167.083 453.9 171.95 453.9 178.55 453.9 181.85 450.033 181.85 442.3 L181.85 409 157.25 409 157.25 396 197.95 396 197.95 441.4 C197.95 450 195.817 456.45 191.55 460.75 187.283 465.05 181.017 467.2 172.75 467.2 Z" fill="#da387d" fill-opacity="1" stroke="none"/>
  <path id="Path-28" d="M395.051 77.518 L383.554 77.518 383.554 66.021 C383.554 59.837 378.541 54.825 372.357 54.825 366.173 54.825 361.16 59.838 361.16 66.021 L361.16 77.518 349.663 77.518 C343.479 77.518 338.467 82.531 338.467 88.715 338.467 94.899 343.48 99.912 349.663 99.912 L361.16 99.912 361.16 111.409 C361.16 117.593 366.173 122.605 372.357 122.605 378.541 122.605 383.554 117.592 383.554 111.409 L383.554 99.911 395.051 99.911 C401.235 99.911 406.248 94.898 406.248 88.714 406.248 82.531 401.235 77.518 395.051 77.518 Z" fill="#f9f6f9" fill-opacity="1" stroke="none"/>
  <path id="Path-29" d="M113.827 325.217 L102.33 325.217 102.33 313.72 C102.33 307.536 97.317 302.524 91.133 302.524 84.949 302.524 79.936 307.537 79.936 313.72 L79.936 325.217 68.44 325.217 C62.256 325.217 57.244 330.23 57.244 336.414 57.244 342.598 62.257 347.611 68.44 347.611 L79.937 347.611 79.937 359.108 C79.937 365.292 84.95 370.304 91.134 370.304 97.318 370.304 102.331 365.291 102.331 359.108 L102.331 347.61 113.828 347.61 C120.012 347.61 125.025 342.597 125.025 336.413 125.023 330.23 120.011 325.217 113.827 325.217 Z" fill="#f9f6f9" fill-opacity="1" stroke="none"/>
 </g>
</svg>
