<?xml version="1.0" encoding="utf-8"?>
<!-- Generator: Adobe Illustrator 16.0.0, SVG Export Plug-In . SVG Version: 6.00 Build 0)  -->
<!DOCTYPE svg PUBLIC "-//W3C//DTD SVG 1.1//EN" "http://www.w3.org/Graphics/SVG/1.1/DTD/svg11.dtd">
<svg version="1.1" id="Vrstva_1" xmlns="http://www.w3.org/2000/svg" xmlns:xlink="http://www.w3.org/1999/xlink" x="0px" y="0px"
	 width="1551.831px" height="444.5px" viewBox="0 0 1551.831 444.5" enable-background="new 0 0 1551.831 444.5"
	 xml:space="preserve">
<path id="Projekt-Budoucnost" fill="#ED230D" d="M239.096,443.438c-16.939,0-30.451-5.001-40.535-15.004
	c-10.084-10.002-15.125-25.007-15.125-45.012v-73.327h45.98v65.825c0,9.84,1.856,17.019,5.566,21.537
	c3.711,4.518,9.114,6.777,16.213,6.777c7.26,0,13.188-2.541,17.787-7.623c4.598-5.082,6.898-12.867,6.898-23.353v-63.163h45.979
	v131.164h-43.801v-14.036c-4.841,5.323-10.647,9.358-17.424,12.102C253.86,442.067,246.678,443.438,239.096,443.438z
	 M408.496,443.438c-11.939,0-22.828-2.783-32.67-8.35c-9.841-5.565-17.625-13.511-23.353-23.836
	c-5.728-10.327-8.59-22.265-8.59-35.816c0-13.553,2.862-25.45,8.59-35.695s13.512-18.11,23.353-23.596
	c9.842-5.485,20.73-8.227,32.67-8.227c15.648,0,27.75,4.517,36.301,13.55v-59.772h45.979v179.563h-43.801v-13.067
	C438.424,438.355,425.596,443.438,408.496,443.438z M586.125,443.438c-14.036,0-26.701-2.905-37.994-8.713
	c-11.294-5.809-20.128-13.874-26.5-24.199c-6.373-10.326-9.559-22.023-9.559-35.09c0-12.906,3.186-24.522,9.559-34.848
	c6.372-10.325,15.166-18.353,26.379-24.08c11.212-5.728,23.918-8.59,38.115-8.59s26.941,2.862,38.234,8.59
	c11.294,5.728,20.087,13.715,26.379,23.959s9.438,21.9,9.438,34.969c0,13.067-3.146,24.764-9.438,35.09
	c-6.292,10.325-15.085,18.391-26.379,24.199C613.066,440.532,600.322,443.438,586.125,443.438z M736.648,443.438
	c-16.94,0-30.451-5.001-40.535-15.004c-10.083-10.002-15.125-25.007-15.125-45.012v-73.327h45.98v65.825
	c0,9.84,1.854,17.019,5.564,21.537s9.116,6.777,16.215,6.777c7.26,0,13.189-2.541,17.787-7.623s6.896-12.867,6.896-23.353v-63.163
	h45.98v131.164h-43.803v-14.036c-4.84,5.323-10.648,9.358-17.424,12.102C751.409,442.067,744.231,443.438,736.648,443.438z
	 M915.97,443.438c-14.52,0-27.509-2.905-38.963-8.713c-11.455-5.809-20.368-13.874-26.74-24.199
	c-6.373-10.326-9.561-22.023-9.561-35.09c0-13.068,3.188-24.725,9.561-34.969c6.372-10.244,15.285-18.231,26.74-23.959
	c11.454-5.728,24.443-8.59,38.963-8.59c14.842,0,27.667,3.187,38.476,9.559c10.81,6.373,18.473,15.205,22.99,26.498l-35.574,18.15
	c-5.968-11.777-14.679-17.666-26.134-17.666c-8.229,0-15.045,2.743-20.449,8.229s-8.107,13.067-8.107,22.748
	c0,9.841,2.703,17.545,8.107,23.111c5.404,5.566,12.221,8.348,20.449,8.348c11.455,0,20.166-5.887,26.134-17.665l35.574,18.149
	c-4.518,11.293-12.181,20.127-22.99,26.5C943.637,440.251,930.812,443.438,915.97,443.438z M1231.054,443.438
	c-14.035,0-26.701-2.905-37.994-8.713c-11.293-5.809-20.127-13.874-26.5-24.199c-6.373-10.326-9.559-22.023-9.559-35.09
	c0-12.906,3.186-24.522,9.559-34.848s15.166-18.353,26.379-24.08s23.918-8.59,38.115-8.59s26.941,2.862,38.234,8.59
	s20.087,13.715,26.379,23.959s9.438,21.9,9.438,34.969c0,13.067-3.146,24.764-9.438,35.09
	c-6.292,10.325-15.086,18.391-26.379,24.199C1257.995,440.532,1245.251,443.438,1231.054,443.438z M1374.075,443.438
	c-10.971,0-21.779-1.251-32.428-3.752c-10.648-2.5-19.199-5.768-25.652-9.802l13.793-31.458c5.969,3.71,13.069,6.655,21.297,8.833
	c8.229,2.179,16.375,3.268,24.441,3.268c7.422,0,12.706-0.767,15.852-2.299c3.146-1.532,4.719-3.75,4.719-6.655
	c0-2.904-1.896-4.962-5.688-6.172s-9.799-2.38-18.027-3.51c-10.486-1.29-19.402-2.984-26.742-5.082
	c-7.341-2.098-13.673-5.968-18.996-11.615c-5.324-5.647-7.986-13.553-7.986-23.717c0-8.39,2.501-15.851,7.502-22.385
	c5.001-6.533,12.301-11.694,21.9-15.486c9.6-3.791,21.096-5.688,34.486-5.688c9.518,0,18.955,0.968,28.313,2.904
	c9.357,1.936,17.183,4.677,23.475,8.227l-13.795,31.219c-11.616-6.453-24.198-9.68-37.75-9.68c-7.26,0-12.585,0.848-15.973,2.541
	c-3.389,1.694-5.082,3.911-5.082,6.654c0,3.065,1.855,5.204,5.566,6.414c3.71,1.21,9.84,2.459,18.391,3.75
	c10.81,1.613,19.765,3.469,26.863,5.566c7.1,2.098,13.269,5.929,18.512,11.494c5.244,5.566,7.865,13.35,7.865,23.353
	c0,8.228-2.5,15.609-7.502,22.143s-12.382,11.656-22.143,15.367S1387.788,443.438,1374.075,443.438z M1517.339,443.438
	c-17.102,0-30.249-4.194-39.445-12.584s-13.795-20.893-13.795-37.511v-44.043h-19.117v-34.363h19.117v-34.121h45.98v34.121h30.008
	v34.363h-30.008v43.56c0,4.679,1.251,8.35,3.752,11.012c2.501,2.663,5.848,3.993,10.043,3.993c5.324,0,10.002-1.371,14.035-4.114
	l11.375,32.186c-3.872,2.42-8.592,4.275-14.158,5.566C1529.56,442.792,1523.631,443.438,1517.339,443.438z M0,441.259V271.859
	h86.637c21.618,0,38.074,3.993,49.367,11.979c11.293,7.986,16.939,18.754,16.939,32.307c0,8.066-1.976,15.288-5.928,21.659
	c-3.952,6.373-9.561,11.416-16.82,15.125c9.68,3.389,17.263,8.674,22.748,15.853s8.229,15.849,8.229,26.013
	c0,14.843-5.97,26.298-17.908,34.366s-29.2,12.099-51.787,12.099H0z M994.861,441.259V310.095h43.803v14.278
	c5.163-5.324,11.294-9.397,18.393-12.221s14.844-4.234,23.232-4.234c16.295,0,29.402,4.839,39.324,14.52
	c9.922,9.68,14.883,24.282,14.883,43.803v75.019h-45.98v-67.517c0-17.908-7.179-26.863-21.537-26.863
	c-7.905,0-14.238,2.581-18.998,7.744c-4.76,5.162-7.139,12.907-7.139,23.232v63.403H994.861z M418.176,406.895
	c7.905,0,14.439-2.782,19.602-8.348c5.163-5.565,7.744-13.27,7.744-23.111c0-9.681-2.541-17.263-7.623-22.748
	s-11.656-8.229-19.723-8.229s-14.681,2.743-19.844,8.229s-7.744,13.067-7.744,22.748c0,9.841,2.581,17.545,7.744,23.111
	C403.495,404.113,410.109,406.895,418.176,406.895z M586.125,406.895c8.067,0,14.681-2.782,19.844-8.348
	c5.162-5.565,7.744-13.27,7.744-23.111c0-9.681-2.582-17.263-7.744-22.748c-5.163-5.485-11.776-8.229-19.844-8.229
	c-8.066,0-14.683,2.743-19.846,8.229c-5.162,5.485-7.744,13.067-7.744,22.748c0,9.841,2.582,17.545,7.744,23.111
	C571.442,404.113,578.058,406.895,586.125,406.895z M1231.054,406.895c8.067,0,14.682-2.782,19.844-8.348
	c5.162-5.565,7.744-13.27,7.744-23.111c0-9.681-2.582-17.263-7.744-22.748s-11.776-8.229-19.844-8.229
	c-8.066,0-14.681,2.743-19.844,8.229s-7.744,13.067-7.744,22.748c0,9.841,2.581,17.545,7.744,23.111
	C1216.373,404.113,1222.988,406.895,1231.054,406.895z M47.432,406.654h40.172c16.778,0,25.168-5.73,25.168-17.185
	c0-11.453-8.39-17.18-25.168-17.18H47.432V406.654z M47.432,339.134h32.912c16.133,0,24.201-5.483,24.201-16.455
	c0-10.809-8.068-16.214-24.201-16.214H47.432V339.134z M416.967,235.467c-12.746,0-22.427-2.501-29.041-7.502l8.713-22.506
	c4.518,3.389,10.406,5.082,17.666,5.082c5.646,0,9.963-1.734,12.947-5.203c2.985-3.469,4.477-8.592,4.477-15.368V57.595h30.25
	v131.649c0,14.359-3.952,25.653-11.857,33.881C442.216,231.354,431.164,235.467,416.967,235.467z M332.266,188.518
	c-13.068,0-24.846-2.822-35.332-8.469s-18.674-13.513-24.563-23.596c-5.889-10.084-8.832-21.497-8.832-34.242
	c0-12.746,2.943-24.121,8.832-34.123c5.889-10.003,14.076-17.828,24.563-23.475s22.264-8.469,35.332-8.469
	c13.229,0,25.088,2.822,35.574,8.469c10.486,5.647,18.674,13.472,24.563,23.475c5.889,10.002,8.834,21.376,8.834,34.123
	c0,12.745-2.945,24.158-8.834,34.242c-5.889,10.083-14.076,17.949-24.563,23.596C357.354,185.695,345.495,188.518,332.266,188.518z
	 M562.408,188.518c-14.197,0-26.7-2.822-37.51-8.469s-19.158-13.513-25.047-23.596c-5.889-10.084-8.834-21.497-8.834-34.242
	c0-12.584,2.864-23.919,8.592-34.002c5.728-10.084,13.672-17.949,23.836-23.596s21.62-8.469,34.365-8.469
	c12.584,0,23.836,2.784,33.758,8.35s17.667,13.389,23.232,23.473c5.566,10.083,8.35,21.739,8.35,34.968
	c0,2.098-0.161,5.083-0.484,8.955H521.267c1.774,9.519,6.413,17.061,13.916,22.627c7.502,5.565,16.819,8.35,27.951,8.35
	c14.197,0,25.895-4.68,35.09-14.037l16.213,18.635c-5.809,6.938-13.148,12.18-22.021,15.729S573.54,188.518,562.408,188.518z
	 M854.744,188.518c-14.197,0-25.168-3.709-32.912-11.132c-7.744-7.421-11.615-18.229-11.615-32.427V82.763H788.92V58.564h21.297
	V29.041h30.25v29.523h34.605v24.199h-34.605v61.469c0,6.292,1.532,11.091,4.598,14.398s7.503,4.961,13.311,4.961
	c6.776,0,12.422-1.774,16.939-5.324l8.469,21.539c-3.549,2.903-7.863,5.082-12.945,6.533
	C865.756,187.792,860.39,188.518,854.744,188.518z M5.809,186.824v-169.4h69.695c14.682,0,27.467,2.419,38.357,7.259
	c10.89,4.84,19.238,11.778,25.047,20.813c5.808,9.035,8.713,19.763,8.713,32.185c0,12.262-2.905,22.951-8.713,32.067
	c-5.809,9.115-14.157,16.091-25.047,20.932c-10.891,4.84-23.676,7.26-38.357,7.26H37.268v48.885H5.809z M174.967,186.824V57.595
	h28.797v18.877c8.713-13.552,24.039-20.328,45.98-20.328v28.797c-2.581-0.484-4.92-0.724-7.018-0.724
	c-11.777,0-20.974,3.428-27.588,10.285c-6.614,6.856-9.922,16.737-9.922,29.644v62.678H174.967z M652.189,186.824V7.259h30.25
	v108.417l62.678-58.081h36.301l-53.967,54.209l59.049,75.02h-36.783l-44.771-55.418l-22.506,21.297v34.121H652.189z
	 M332.266,162.625c11.133,0,20.327-3.712,27.588-11.133c7.26-7.421,10.89-17.181,10.89-29.281c0-12.1-3.63-21.861-10.89-29.284
	c-7.261-7.421-16.455-11.13-27.588-11.13s-20.287,3.709-27.467,11.13c-7.18,7.422-10.77,17.184-10.77,29.284
	c0,12.101,3.59,21.86,10.77,29.281S321.133,162.625,332.266,162.625z M521.025,111.805h73.326
	c-1.291-9.357-5.242-16.94-11.857-22.749s-14.842-8.713-24.684-8.713c-9.681,0-17.869,2.865-24.564,8.592
	C526.551,94.663,522.476,102.286,521.025,111.805z M37.268,111.32h36.785c13.713,0,24.118-2.905,31.217-8.713
	c7.099-5.808,10.648-14.116,10.648-24.926c0-10.809-3.55-19.117-10.648-24.925s-17.504-8.711-31.217-8.711H37.268V111.32z
	 M446.732,36.301c-5.485,0-10.084-1.735-13.795-5.204c-3.711-3.468-5.566-7.784-5.566-12.947s1.855-9.479,5.566-12.947
	C436.648,1.734,441.247,0,446.732,0s10.083,1.653,13.793,4.961c3.711,3.307,5.566,7.461,5.566,12.463
	c0,5.324-1.815,9.801-5.445,13.431C457.015,34.485,452.379,36.301,446.732,36.301z"/>
</svg>
